# xmcd CD database file
#
# Track frame offsets:
#	150
#	18814
#	47279
#	66659
#
# Disc length: 1113 seconds
#
# Revision: 0
# Processed by: cddbd v1.5PL3 Copyright (c) Steve Scherf et al.
# Submitted via: CDex 1.50
#
DISCID=2a045704
DTITLE=MAYUKO - 決意
DYEAR=2004
DGENRE=Vocal
TTITLE0=決意
TTITLE1=ねがい
TTITLE2=幸せに…なろうね
TTITLE3=必ずまた会える
EXTD=YEAR: 2004.3.5
EXTT0=
EXTT1=
EXTT2=
EXTT3=
PLAYORDER=
